<svg width="29" height="29" viewBox="0 0 29 29" fill="none" xmlns="http://www.w3.org/2000/svg">
<g clip-path="url(#clip0_3_1089)">
<path d="M28.6467 15.0051C28.6467 13.8647 28.552 13.0326 28.3471 12.1697H15.022V17.3165H22.8435C22.6859 18.5956 21.8343 20.5218 19.942 21.8162L19.9155 21.9885L24.1286 25.1779L24.4205 25.2064C27.1013 22.787 28.6467 19.2273 28.6467 15.0051Z" fill="#4285F4"/>
<path d="M15.022 28.5658C18.8539 28.5658 22.0708 27.333 24.4206 25.2065L19.942 21.8163C18.7436 22.633 17.1351 23.2031 15.022 23.2031C11.2689 23.2031 8.08353 20.7839 6.94802 17.4399L6.78158 17.4538L2.40068 20.7669L2.34338 20.9225C4.67723 25.453 9.47114 28.5658 15.022 28.5658Z" fill="#34A853"/>
<path d="M6.94805 17.4399C6.64844 16.5769 6.47504 15.6523 6.47504 14.6969C6.47504 13.7414 6.64844 12.8169 6.93229 11.9539L6.92435 11.7702L2.48855 8.40381L2.34341 8.47127C1.38152 10.3513 0.82959 12.4625 0.82959 14.6969C0.82959 16.9313 1.38152 19.0424 2.34341 20.9224L6.94805 17.4399Z" fill="#FBBC05"/>
<path d="M15.022 6.19072C17.687 6.19072 19.4847 7.31563 20.5097 8.25569L24.5151 4.43403C22.0552 2.19961 18.8539 0.828125 15.022 0.828125C9.47114 0.828125 4.67723 3.94089 2.34338 8.47135L6.93226 11.954C8.08353 8.61009 11.2689 6.19072 15.022 6.19072Z" fill="#EB4335"/>
</g>
<defs>
<clipPath id="clip0_3_1089">
<rect width="27.8333" height="27.8333" fill="white" transform="translate(0.828125 0.828125)"/>
</clipPath>
</defs>
</svg>
