<svg width="29" height="29" viewBox="0 0 29 29" fill="none" xmlns="http://www.w3.org/2000/svg">
<g clip-path="url(#clip0_3_1094)">
<path d="M14.5 28.6615C22.186 28.6615 28.4167 22.4308 28.4167 14.7448C28.4167 7.05883 22.186 0.828125 14.5 0.828125C6.81408 0.828125 0.583374 7.05883 0.583374 14.7448C0.583374 22.4308 6.81408 28.6615 14.5 28.6615Z" fill="#0177B5"/>
<path d="M20.5886 7.78638H8.41154C8.18086 7.78638 7.95962 7.87802 7.7965 8.04113C7.63339 8.20425 7.54175 8.42549 7.54175 8.65617V20.8333C7.54175 21.0639 7.63339 21.2852 7.7965 21.4483C7.95962 21.6114 8.18086 21.703 8.41154 21.703H20.5886C20.8193 21.703 21.0405 21.6114 21.2037 21.4483C21.3668 21.2852 21.4584 21.0639 21.4584 20.8333V8.65617C21.4584 8.42549 21.3668 8.20425 21.2037 8.04113C21.0405 7.87802 20.8193 7.78638 20.5886 7.78638ZM11.8907 19.5286H9.71623V13.0051H11.8907V19.5286ZM10.8035 12.1353C10.5454 12.1353 10.2932 12.0588 10.0786 11.9155C9.86407 11.7721 9.69684 11.5683 9.59809 11.3299C9.49934 11.0915 9.47351 10.8292 9.52385 10.5761C9.57419 10.323 9.69845 10.0906 9.88091 9.90809C10.0634 9.72563 10.2959 9.60137 10.5489 9.55103C10.802 9.50069 11.0643 9.52652 11.3027 9.62527C11.5411 9.72402 11.7449 9.89125 11.8883 10.1058C12.0316 10.3204 12.1082 10.5726 12.1082 10.8306C12.1082 11.1767 11.9707 11.5085 11.726 11.7532C11.4813 11.9979 11.1495 12.1353 10.8035 12.1353ZM19.2839 19.5286H17.1095V15.1796C17.1095 14.8186 16.6224 14.5273 16.0222 14.5273C15.1524 14.5273 14.935 15.6884 14.935 16.0494V19.5286H12.7605V13.0051H14.935V14.5273C14.935 13.44 15.9091 13.0051 17.1095 13.0051C17.6862 13.0051 18.2393 13.2342 18.647 13.642C19.0548 14.0498 19.2839 14.6029 19.2839 15.1796V19.5286Z" fill="white"/>
</g>
<defs>
<clipPath id="clip0_3_1094">
<rect width="27.8333" height="27.8333" fill="white" transform="translate(0.583374 0.828125)"/>
</clipPath>
</defs>
</svg>
