<svg width="29" height="32" viewBox="0 0 29 32" fill="none" xmlns="http://www.w3.org/2000/svg">
<path d="M19.2836 5.34289C19.9298 4.66076 20.4225 3.86843 20.7334 3.01142C21.0444 2.1544 21.1674 1.24956 21.0954 0.348877C19.1116 0.495546 17.2701 1.35012 15.9676 2.72847C15.3439 3.38908 14.8712 4.1576 14.5776 4.98852C14.284 5.81945 14.1755 6.69588 14.2583 7.56593C15.226 7.57331 16.1826 7.37665 17.054 6.99116C17.9254 6.60567 18.6883 6.0417 19.2836 5.34289ZM23.591 16.9904C23.6024 15.7908 23.9474 14.6136 24.5934 13.57C25.2394 12.5264 26.165 11.6508 27.283 11.0257C26.5775 10.0946 25.6447 9.32688 24.5588 8.78339C23.4729 8.23991 22.2637 7.93563 21.0271 7.89469C18.3606 7.6442 15.8992 9.31931 14.4805 9.31931C13.0618 9.31931 11.062 7.926 8.83994 7.95731C7.38727 8.00114 5.97181 8.38905 4.73161 9.08321C3.4914 9.77737 2.4688 10.7541 1.76354 11.9181C-1.24478 16.7086 0.994367 23.8317 4.00269 27.6985C5.37011 29.5928 7.07939 31.7376 9.33563 31.6593C11.5919 31.581 12.3269 30.3756 14.942 30.3756C17.5572 30.3756 18.3606 31.6593 20.5827 31.6123C22.8047 31.5654 24.3772 29.6711 25.813 27.7768C26.8301 26.4015 27.6246 24.8987 28.1718 23.3151C26.8172 22.7859 25.6615 21.905 24.8474 20.781C24.0333 19.657 23.5965 18.3392 23.591 16.9904Z" fill="black"/>
</svg>
